<svg xmlns="http://www.w3.org/2000/svg" viewBox="0 0 512.002 512.002"><path fill="#ffffff" d="M362.668 128.004H26.608c-12.382 0-23.757 8.346-26.112 20.497-3.174 16.341 9.318 30.703 25.105 30.703h337.067a4.268 4.268 0 0 0 4.267-4.267V132.27a4.269 4.269 0 0 0-4.267-4.266zM508.98 147.085L398.047 53.218a8.542 8.542 0 0 0-9.105-1.229 8.55 8.55 0 0 0-4.941 7.748V247.47a8.53 8.53 0 0 0 4.941 7.74 8.455 8.455 0 0 0 3.593.794c1.98 0 3.942-.691 5.513-2.014l110.933-93.867a8.547 8.547 0 0 0-.001-13.038zM123.06 256.798a8.542 8.542 0 0 0-9.105 1.229L3.022 351.893c-1.92 1.621-3.021 4.002-3.021 6.511s1.101 4.89 3.021 6.519l110.933 93.867a8.56 8.56 0 0 0 5.513 2.014c1.22 0 2.441-.256 3.593-.794a8.529 8.529 0 0 0 4.941-7.74V264.538a8.53 8.53 0 0 0-4.942-7.74zM511.506 353.301c-2.364-12.151-13.739-20.497-26.112-20.497h-336.06a4.268 4.268 0 0 0-4.267 4.267v42.667a4.268 4.268 0 0 0 4.267 4.267h337.067c15.787-.001 28.28-14.362 25.105-30.704z"/></svg>
